<svg width="19" height="18" viewBox="0 0 19 18" fill="none" xmlns="http://www.w3.org/2000/svg">
<line x1="0.5" x2="0.5" y2="18" stroke="black"/>
<path d="M6.58203 9.70117H4.49707L4.02881 11H3.35205L5.25244 6.02344H5.82666L7.73047 11H7.05713L6.58203 9.70117ZM4.69531 9.16113H6.38721L5.53955 6.8335L4.69531 9.16113ZM8.40039 11V6.02344H10.0273C10.5674 6.02344 10.973 6.13509 11.2441 6.3584C11.5176 6.58171 11.6543 6.91211 11.6543 7.34961C11.6543 7.58203 11.5882 7.78825 11.4561 7.96826C11.3239 8.146 11.1439 8.28385 10.916 8.38184C11.1849 8.45703 11.3968 8.60059 11.5518 8.8125C11.709 9.02214 11.7876 9.27279 11.7876 9.56445C11.7876 10.0111 11.6429 10.362 11.3535 10.6172C11.0641 10.8724 10.6551 11 10.1265 11H8.40039ZM9.05664 8.67236V10.4634H10.1401C10.4455 10.4634 10.6859 10.3848 10.8613 10.2275C11.0391 10.068 11.1279 9.84928 11.1279 9.57129C11.1279 8.97201 10.8021 8.67236 10.1504 8.67236H9.05664ZM9.05664 8.146H10.0479C10.335 8.146 10.564 8.07422 10.7349 7.93066C10.908 7.78711 10.9946 7.59229 10.9946 7.34619C10.9946 7.07275 10.9149 6.87451 10.7554 6.75146C10.5959 6.62614 10.3532 6.56348 10.0273 6.56348H9.05664V8.146ZM16.4224 9.4209C16.3608 9.94727 16.166 10.354 15.8379 10.6411C15.512 10.9259 15.078 11.0684 14.5356 11.0684C13.9478 11.0684 13.4761 10.8576 13.1206 10.436C12.7674 10.0145 12.5908 9.45052 12.5908 8.74414V8.26562C12.5908 7.80306 12.6729 7.39632 12.8369 7.04541C13.0033 6.6945 13.238 6.42562 13.541 6.23877C13.8441 6.04964 14.195 5.95508 14.5938 5.95508C15.1224 5.95508 15.5462 6.10319 15.8652 6.39941C16.1842 6.69336 16.37 7.10124 16.4224 7.62305H15.7627C15.7057 7.22656 15.5815 6.93945 15.3901 6.76172C15.201 6.58398 14.9355 6.49512 14.5938 6.49512C14.1745 6.49512 13.8452 6.65007 13.606 6.95996C13.369 7.26986 13.2505 7.71077 13.2505 8.28271V8.76465C13.2505 9.30469 13.3633 9.73421 13.5889 10.0532C13.8145 10.3722 14.13 10.5317 14.5356 10.5317C14.9002 10.5317 15.1794 10.4497 15.373 10.2856C15.569 10.1193 15.6989 9.83105 15.7627 9.4209H16.4224Z" fill="black"/>
</svg>
