<svg width="22" height="18" viewBox="0 0 22 18" fill="none" xmlns="http://www.w3.org/2000/svg">
<line x1="8.74228e-08" y1="17.5" x2="22" y2="17.5" stroke="black"/>
<line x1="8.74228e-08" y1="0.5" x2="22" y2="0.500004" stroke="black"/>
<path d="M7.58203 9.70117H5.49707L5.02881 11H4.35205L6.25244 6.02344H6.82666L8.73047 11H8.05713L7.58203 9.70117ZM5.69531 9.16113H7.38721L6.53955 6.8335L5.69531 9.16113ZM9.40039 11V6.02344H11.0273C11.5674 6.02344 11.973 6.13509 12.2441 6.3584C12.5176 6.58171 12.6543 6.91211 12.6543 7.34961C12.6543 7.58203 12.5882 7.78825 12.4561 7.96826C12.3239 8.146 12.1439 8.28385 11.916 8.38184C12.1849 8.45703 12.3968 8.60059 12.5518 8.8125C12.709 9.02214 12.7876 9.27279 12.7876 9.56445C12.7876 10.0111 12.6429 10.362 12.3535 10.6172C12.0641 10.8724 11.6551 11 11.1265 11H9.40039ZM10.0566 8.67236V10.4634H11.1401C11.4455 10.4634 11.6859 10.3848 11.8613 10.2275C12.0391 10.068 12.1279 9.84928 12.1279 9.57129C12.1279 8.97201 11.8021 8.67236 11.1504 8.67236H10.0566ZM10.0566 8.146H11.0479C11.335 8.146 11.564 8.07422 11.7349 7.93066C11.908 7.78711 11.9946 7.59229 11.9946 7.34619C11.9946 7.07275 11.9149 6.87451 11.7554 6.75146C11.5959 6.62614 11.3532 6.56348 11.0273 6.56348H10.0566V8.146ZM17.4224 9.4209C17.3608 9.94727 17.166 10.354 16.8379 10.6411C16.512 10.9259 16.078 11.0684 15.5356 11.0684C14.9478 11.0684 14.4761 10.8576 14.1206 10.436C13.7674 10.0145 13.5908 9.45052 13.5908 8.74414V8.26562C13.5908 7.80306 13.6729 7.39632 13.8369 7.04541C14.0033 6.6945 14.238 6.42562 14.541 6.23877C14.8441 6.04964 15.195 5.95508 15.5938 5.95508C16.1224 5.95508 16.5462 6.10319 16.8652 6.39941C17.1842 6.69336 17.37 7.10124 17.4224 7.62305H16.7627C16.7057 7.22656 16.5815 6.93945 16.3901 6.76172C16.201 6.58398 15.9355 6.49512 15.5938 6.49512C15.1745 6.49512 14.8452 6.65007 14.606 6.95996C14.369 7.26986 14.2505 7.71077 14.2505 8.28271V8.76465C14.2505 9.30469 14.3633 9.73421 14.5889 10.0532C14.8145 10.3722 15.13 10.5317 15.5356 10.5317C15.9002 10.5317 16.1794 10.4497 16.373 10.2856C16.569 10.1193 16.6989 9.83105 16.7627 9.4209H17.4224Z" fill="black"/>
</svg>
