<svg width="23" height="10" viewBox="0 0 23 10" fill="none" xmlns="http://www.w3.org/2000/svg">
<path d="M10.582 7.70117H8.49707L8.02881 9H7.35205L9.25244 4.02344H9.82666L11.7305 9H11.0571L10.582 7.70117ZM8.69531 7.16113H10.3872L9.53955 4.8335L8.69531 7.16113ZM12.4004 9V4.02344H14.0273C14.5674 4.02344 14.973 4.13509 15.2441 4.3584C15.5176 4.58171 15.6543 4.91211 15.6543 5.34961C15.6543 5.58203 15.5882 5.78825 15.4561 5.96826C15.3239 6.146 15.1439 6.28385 14.916 6.38184C15.1849 6.45703 15.3968 6.60059 15.5518 6.8125C15.709 7.02214 15.7876 7.27279 15.7876 7.56445C15.7876 8.01107 15.6429 8.36198 15.3535 8.61719C15.0641 8.8724 14.6551 9 14.1265 9H12.4004ZM13.0566 6.67236V8.46338H14.1401C14.4455 8.46338 14.6859 8.38477 14.8613 8.22754C15.0391 8.06803 15.1279 7.84928 15.1279 7.57129C15.1279 6.97201 14.8021 6.67236 14.1504 6.67236H13.0566ZM13.0566 6.146H14.0479C14.335 6.146 14.564 6.07422 14.7349 5.93066C14.908 5.78711 14.9946 5.59229 14.9946 5.34619C14.9946 5.07275 14.9149 4.87451 14.7554 4.75146C14.5959 4.62614 14.3532 4.56348 14.0273 4.56348H13.0566V6.146ZM20.4224 7.4209C20.3608 7.94727 20.166 8.354 19.8379 8.64111C19.512 8.92594 19.078 9.06836 18.5356 9.06836C17.9478 9.06836 17.4761 8.85758 17.1206 8.43604C16.7674 8.01449 16.5908 7.45052 16.5908 6.74414V6.26562C16.5908 5.80306 16.6729 5.39632 16.8369 5.04541C17.0033 4.6945 17.238 4.42562 17.541 4.23877C17.8441 4.04964 18.195 3.95508 18.5938 3.95508C19.1224 3.95508 19.5462 4.10319 19.8652 4.39941C20.1842 4.69336 20.37 5.10124 20.4224 5.62305H19.7627C19.7057 5.22656 19.5815 4.93945 19.3901 4.76172C19.201 4.58398 18.9355 4.49512 18.5938 4.49512C18.1745 4.49512 17.8452 4.65007 17.606 4.95996C17.369 5.26986 17.2505 5.71077 17.2505 6.28271V6.76465C17.2505 7.30469 17.3633 7.73421 17.5889 8.05322C17.8145 8.37223 18.13 8.53174 18.5356 8.53174C18.9002 8.53174 19.1794 8.44971 19.373 8.28564C19.569 8.1193 19.6989 7.83105 19.7627 7.4209H20.4224Z" fill="black"/>
<path d="M3.2215 3.06C3.2215 3.35 3.1265 3.585 2.9365 3.765C2.7465 3.935 2.5065 4.02 2.2165 4.02C1.8665 4.02 1.5765 3.905 1.3465 3.675C1.1265 3.445 1.0165 3.115 1.0165 2.685C1.0165 2.225 1.1465 1.775 1.4065 1.335C1.6765 0.884999 2.0515 0.529999 2.5315 0.269999L2.8765 0.794999C2.6165 0.974999 2.4065 1.175 2.2465 1.395C2.0965 1.615 1.9965 1.87 1.9465 2.16C2.0365 2.12 2.1415 2.1 2.2615 2.1C2.5415 2.1 2.7715 2.19 2.9515 2.37C3.1315 2.55 3.2215 2.78 3.2215 3.06ZM5.9815 3.06C5.9815 3.35 5.8865 3.585 5.6965 3.765C5.5065 3.935 5.2665 4.02 4.9765 4.02C4.6265 4.02 4.3365 3.905 4.1065 3.675C3.8865 3.445 3.7765 3.115 3.7765 2.685C3.7765 2.225 3.9065 1.775 4.1665 1.335C4.4365 0.884999 4.8115 0.529999 5.2915 0.269999L5.6365 0.794999C5.3765 0.974999 5.1665 1.175 5.0065 1.395C4.8565 1.615 4.7565 1.87 4.7065 2.16C4.7965 2.12 4.9015 2.1 5.0215 2.1C5.3015 2.1 5.5315 2.19 5.7115 2.37C5.8915 2.55 5.9815 2.78 5.9815 3.06Z" fill="black"/>
</svg>
