<svg width="22" height="4" viewBox="0 0 22 4" fill="none" xmlns="http://www.w3.org/2000/svg">
<line x1="15" y1="2.5" x2="22" y2="2.5" stroke="black"/>
<line x1="6.24448e-08" y1="2.5" x2="7" y2="2.5" stroke="black"/>
<path d="M9.53516 2.44336H8.6416L8.44092 3H8.15088L8.96533 0.867188H9.21143L10.0273 3H9.73877L9.53516 2.44336ZM8.72656 2.21191H9.45166L9.08838 1.21436L8.72656 2.21191ZM10.3145 3V0.867188H11.0117C11.2432 0.867188 11.417 0.915039 11.5332 1.01074C11.6504 1.10645 11.709 1.24805 11.709 1.43555C11.709 1.53516 11.6807 1.62354 11.624 1.70068C11.5674 1.77686 11.4902 1.83594 11.3926 1.87793C11.5078 1.91016 11.5986 1.97168 11.665 2.0625C11.7324 2.15234 11.7661 2.25977 11.7661 2.38477C11.7661 2.57617 11.7041 2.72656 11.5801 2.83594C11.4561 2.94531 11.2808 3 11.0542 3H10.3145ZM10.5957 2.00244V2.77002H11.0601C11.1909 2.77002 11.2939 2.73633 11.3691 2.66895C11.4453 2.60059 11.4834 2.50684 11.4834 2.3877C11.4834 2.13086 11.3438 2.00244 11.0645 2.00244H10.5957ZM10.5957 1.77686H11.0205C11.1436 1.77686 11.2417 1.74609 11.3149 1.68457C11.3892 1.62305 11.4263 1.53955 11.4263 1.43408C11.4263 1.31689 11.3921 1.23193 11.3237 1.1792C11.2554 1.12549 11.1514 1.09863 11.0117 1.09863H10.5957V1.77686ZM13.7524 2.32324C13.7261 2.54883 13.6426 2.72314 13.502 2.84619C13.3623 2.96826 13.1763 3.0293 12.9438 3.0293C12.6919 3.0293 12.4897 2.93896 12.3374 2.7583C12.186 2.57764 12.1104 2.33594 12.1104 2.0332V1.82812C12.1104 1.62988 12.1455 1.45557 12.2158 1.30518C12.2871 1.15479 12.3877 1.03955 12.5176 0.959473C12.6475 0.878418 12.7979 0.837891 12.9688 0.837891C13.1953 0.837891 13.377 0.901367 13.5137 1.02832C13.6504 1.1543 13.73 1.3291 13.7524 1.55273H13.4697C13.4453 1.38281 13.3921 1.25977 13.3101 1.18359C13.229 1.10742 13.1152 1.06934 12.9688 1.06934C12.7891 1.06934 12.6479 1.13574 12.5454 1.26855C12.4438 1.40137 12.3931 1.59033 12.3931 1.83545V2.04199C12.3931 2.27344 12.4414 2.45752 12.5381 2.59424C12.6348 2.73096 12.77 2.79932 12.9438 2.79932C13.1001 2.79932 13.2197 2.76416 13.3027 2.69385C13.3867 2.62256 13.4424 2.49902 13.4697 2.32324H13.7524Z" fill="black"/>
</svg>
