<svg width="23" height="18" viewBox="0 0 23 18" fill="none" xmlns="http://www.w3.org/2000/svg">
<path d="M13.4414 12H8.7832V11.3506L11.2441 8.61621C11.6087 8.2028 11.8594 7.86751 11.9961 7.61035C12.1361 7.34993 12.2061 7.08138 12.2061 6.80469C12.2061 6.43359 12.0938 6.12923 11.8691 5.8916C11.6445 5.65397 11.3451 5.53516 10.9707 5.53516C10.5215 5.53516 10.1715 5.66374 9.9209 5.9209C9.6735 6.1748 9.5498 6.52962 9.5498 6.98535H8.64648C8.64648 6.33105 8.85645 5.80208 9.27637 5.39844C9.69954 4.99479 10.2643 4.79297 10.9707 4.79297C11.6315 4.79297 12.154 4.96712 12.5381 5.31543C12.9222 5.66048 13.1143 6.12109 13.1143 6.69727C13.1143 7.39714 12.6683 8.23047 11.7764 9.19727L9.87207 11.2627H13.4414V12Z" fill="black"/>
<line x1="0.5" x2="0.5" y2="18" stroke="black"/>
<line y1="17.5" x2="22" y2="17.5" stroke="black"/>
<line x1="1" y1="0.5" x2="23" y2="0.5" stroke="black"/>
<line x1="22.5" x2="22.5" y2="18" stroke="black"/>
</svg>
