<svg width="23" height="18" viewBox="0 0 23 18" fill="none" xmlns="http://www.w3.org/2000/svg">
<path d="M10.0967 8.00586H10.7754C11.2018 7.99935 11.5371 7.88704 11.7812 7.66895C12.0254 7.45085 12.1475 7.15625 12.1475 6.78516C12.1475 5.95182 11.7324 5.53516 10.9023 5.53516C10.5117 5.53516 10.1992 5.64746 9.96484 5.87207C9.73372 6.09342 9.61816 6.38802 9.61816 6.75586H8.71484C8.71484 6.19271 8.91992 5.72559 9.33008 5.35449C9.74349 4.98014 10.2676 4.79297 10.9023 4.79297C11.5729 4.79297 12.0986 4.97038 12.4795 5.3252C12.8604 5.68001 13.0508 6.17318 13.0508 6.80469C13.0508 7.11393 12.9499 7.41341 12.748 7.70312C12.5495 7.99284 12.2777 8.20931 11.9326 8.35254C12.3232 8.47624 12.6243 8.68132 12.8359 8.96777C13.0508 9.25423 13.1582 9.60417 13.1582 10.0176C13.1582 10.6556 12.9499 11.1618 12.5332 11.5361C12.1165 11.9105 11.5745 12.0977 10.9072 12.0977C10.2399 12.0977 9.69629 11.917 9.27637 11.5557C8.8597 11.1943 8.65137 10.7174 8.65137 10.125H9.55957C9.55957 10.4993 9.68164 10.7988 9.92578 11.0234C10.1699 11.248 10.4971 11.3604 10.9072 11.3604C11.3434 11.3604 11.6771 11.2464 11.9082 11.0186C12.1393 10.7907 12.2549 10.4635 12.2549 10.0371C12.2549 9.6237 12.1279 9.30632 11.874 9.08496C11.6201 8.86361 11.2539 8.74967 10.7754 8.74316H10.0967V8.00586Z" fill="black"/>
<line x1="0.5" x2="0.5" y2="18" stroke="black"/>
<line y1="17.5" x2="22" y2="17.5" stroke="black"/>
<line x1="1" y1="0.5" x2="23" y2="0.5" stroke="black"/>
<line x1="22.5" x2="22.5" y2="18" stroke="black"/>
</svg>
