<svg id="Layer_1" data-name="Layer 1" xmlns="http://www.w3.org/2000/svg" viewBox="0 0 100 62.99"><defs><style>.cls-1{fill:#fff;}.cls-2{fill:#231f20;}</style></defs><title>Untitled-3</title><rect class="cls-1" x="7.28" y="6.41" width="85.44" height="48.35"/><path d="M84.49,20.89h-69A15.52,15.52,0,0,0,0,36.4v32A15.52,15.52,0,0,0,15.5,83.88h69A15.52,15.52,0,0,0,100,68.37v-32A15.53,15.53,0,0,0,84.49,20.89ZM2.3,68.37v-32A13.21,13.21,0,0,1,15.5,23.2H48.11V81.57H15.5A13.21,13.21,0,0,1,2.3,68.37Zm95.39,0a13.21,13.21,0,0,1-13.2,13.2H50.42V23.2H84.49a13.21,13.21,0,0,1,13.2,13.2Z" transform="translate(0 -20.89)"/><path class="cls-2" d="M67.15,65.49a15.33,15.33,0,0,0,3.18-.19,12.75,12.75,0,0,0,10.9-11.14h-.15a9.33,9.33,0,0,1-7.57,3.62c-5.54,0-9.44-4-9.44-10.12,0-5.74,3.9-11,10.41-11,6.7,0,11.08,5.21,11.08,13.35,0,6.17-2.21,11-5.3,14.12a17,17,0,0,1-10,4.63,20.85,20.85,0,0,1-3.09.24Zm1.21-18.07c0,4.48,2.55,7.18,6.45,7.18a7,7,0,0,0,6.08-3.86,3.6,3.6,0,0,0,.48-1.88c-.1-5.15-2.46-9-6.89-9C70.82,39.9,68.36,42.93,68.36,47.42Z" transform="translate(0 -20.89)"/><path class="cls-2" d="M17.72,63.57a14.13,14.13,0,0,0,6.93,2c5.43,0,7.12-3.46,7.07-6.06,0-4.38-4-6.26-8.08-6.26H21.28V50.05h2.36c3.08,0,7-1.59,7-5.3,0-2.5-1.58-4.71-5.48-4.71a11.43,11.43,0,0,0-6.26,2.07L17.76,39A14.85,14.85,0,0,1,26,36.62c6.16,0,9,3.66,9,7.46,0,3.22-1.93,6-5.78,7.36v.1c3.85.77,7,3.66,7,8,0,5-3.9,9.38-11.41,9.38a15.9,15.9,0,0,1-8.13-2.12Z" transform="translate(0 -20.89)"/></svg>