<svg id="Layer_1" data-name="Layer 1" xmlns="http://www.w3.org/2000/svg" viewBox="0 0 100 62.99"><defs><style>.cls-1{fill:#fff;}.cls-2{fill:#231f20;}</style></defs><title>Untitled-2</title><rect class="cls-1" x="7.28" y="6.41" width="85.44" height="48.35"/><path d="M84.49,17.12h-69A15.52,15.52,0,0,0,0,32.63v32A15.52,15.52,0,0,0,15.5,80.11h69A15.52,15.52,0,0,0,100,64.6v-32A15.53,15.53,0,0,0,84.49,17.12ZM2.3,64.6v-32a13.21,13.21,0,0,1,13.2-13.2H48.11V77.8H15.5A13.21,13.21,0,0,1,2.3,64.6Zm95.39,0a13.21,13.21,0,0,1-13.2,13.2H50.42V19.43H84.49a13.21,13.21,0,0,1,13.2,13.2Z" transform="translate(0 -17.12)"/><path class="cls-2" d="M33,36.32a15.33,15.33,0,0,0-3.18.19,12.74,12.74,0,0,0-10.9,11.13h.15A9.33,9.33,0,0,1,26.65,44c5.55,0,9.45,4,9.45,10.12,0,5.73-3.9,11-10.41,11C19,65.19,14.61,60,14.61,51.84c0-6.17,2.21-11,5.3-14.13a17,17,0,0,1,10-4.62A19.4,19.4,0,0,1,33,32.85ZM31.81,54.39c0-4.48-2.55-7.18-6.46-7.18a7,7,0,0,0-6.07,3.86,3.56,3.56,0,0,0-.48,1.87c.09,5.16,2.46,9,6.89,9C29.35,61.91,31.81,58.87,31.81,54.39Z" transform="translate(0 -17.12)"/><path class="cls-2" d="M83,35.91a15.33,15.33,0,0,0-3.18.19A12.73,12.73,0,0,0,68.89,47.24H69a9.34,9.34,0,0,1,7.57-3.62c5.54,0,9.44,4,9.44,10.12,0,5.74-3.9,11-10.41,11-6.69,0-11.08-5.2-11.08-13.35,0-6.17,2.22-11,5.3-14.12a17,17,0,0,1,10-4.63A20.85,20.85,0,0,1,83,32.44ZM81.75,54c0-4.48-2.55-7.18-6.45-7.18a7,7,0,0,0-6.08,3.86,3.7,3.7,0,0,0-.48,1.88c.1,5.16,2.46,9,6.89,9C79.3,61.5,81.75,58.47,81.75,54Z" transform="translate(0 -17.12)"/></svg>