<svg id="Layer_1" data-name="Layer 1" xmlns="http://www.w3.org/2000/svg" viewBox="0 0 100 62.99"><defs><style>.cls-1{fill:#fff;}.cls-2{fill:none;}.cls-3{fill:#231f20;}</style></defs><title>Untitled-3</title><path d="M84.49,20.89h-69A15.52,15.52,0,0,0,0,36.4v32A15.52,15.52,0,0,0,15.5,83.88h69A15.52,15.52,0,0,0,100,68.37v-32A15.53,15.53,0,0,0,84.49,20.89Zm13.2,47.48a13.21,13.21,0,0,1-13.2,13.2h-69A13.21,13.21,0,0,1,2.3,68.37v-32A13.21,13.21,0,0,1,15.5,23.2h69a13.21,13.21,0,0,1,13.2,13.2Z" transform="translate(0 -20.89)"/><rect class="cls-1" x="7.28" y="7.32" width="85.44" height="48.35"/><line class="cls-2" x1="50.42" y1="2.31" x2="48.11" y2="2.31"/><line class="cls-2" x1="50.42" y1="60.68" x2="48.11" y2="60.68"/><path class="cls-3" d="M12.55,64.29a14.2,14.2,0,0,0,6.91,2c5.41,0,7.09-3.45,7-6,0-4.36-4-6.23-8-6.23H16.1V50.82h2.35c3.07,0,7-1.59,7-5.28,0-2.49-1.58-4.7-5.47-4.7A11.54,11.54,0,0,0,13.7,42.9l-1.1-3.07a14.87,14.87,0,0,1,8.15-2.39c6.14,0,8.92,3.64,8.92,7.43,0,3.21-1.92,6-5.75,7.33v.1c3.83.77,7,3.64,7,8,0,5-3.89,9.34-11.37,9.34a15.93,15.93,0,0,1-8.1-2.1Z" transform="translate(0 -20.89)"/><path class="cls-3" d="M71,64.29a14.15,14.15,0,0,0,6.9,2c5.42,0,7.1-3.45,7-6,0-4.36-4-6.23-8-6.23H74.51V50.82h2.35c3.06,0,6.94-1.59,6.94-5.28,0-2.49-1.58-4.7-5.46-4.7a11.51,11.51,0,0,0-6.23,2.06L71,39.83a14.86,14.86,0,0,1,8.14-2.39c6.14,0,8.92,3.64,8.92,7.43,0,3.21-1.92,6-5.75,7.33v.1c3.83.77,7,3.64,7,8,0,5-3.88,9.34-11.36,9.34a15.89,15.89,0,0,1-8.1-2.1Z" transform="translate(0 -20.89)"/><path class="cls-3" d="M58,40.86a15.33,15.33,0,0,0-3.18.19A12.72,12.72,0,0,0,43.93,52.18h.15a9.31,9.31,0,0,1,7.56-3.62c5.54,0,9.44,4,9.44,10.12,0,5.73-3.9,11-10.4,11-6.7,0-11.08-5.2-11.08-13.35,0-6.16,2.21-11,5.3-14.11a17,17,0,0,1,10-4.62A20.85,20.85,0,0,1,58,37.39ZM56.79,58.92c0-4.48-2.55-7.18-6.45-7.18a7,7,0,0,0-6.07,3.85,3.63,3.63,0,0,0-.48,1.88c.09,5.16,2.46,9,6.89,9C54.34,66.43,56.79,63.4,56.79,58.92Z" transform="translate(0 -20.89)"/></svg>