<svg id="Layer_1" data-name="Layer 1" xmlns="http://www.w3.org/2000/svg" viewBox="0 0 100 62.99"><defs><style>.cls-1{fill:#fff;}.cls-2{fill:none;}.cls-3{fill:#231f20;}</style></defs><title>Untitled-3</title><path d="M84.49,20.89h-69A15.52,15.52,0,0,0,0,36.4v32A15.52,15.52,0,0,0,15.5,83.88h69A15.52,15.52,0,0,0,100,68.37v-32A15.53,15.53,0,0,0,84.49,20.89Zm13.2,47.48a13.21,13.21,0,0,1-13.2,13.2h-69A13.21,13.21,0,0,1,2.3,68.37v-32A13.21,13.21,0,0,1,15.5,23.2h69a13.21,13.21,0,0,1,13.2,13.2Z" transform="translate(0 -20.89)"/><rect class="cls-1" x="7.28" y="7.32" width="85.44" height="48.35"/><line class="cls-2" x1="50.42" y1="2.31" x2="48.11" y2="2.31"/><line class="cls-2" x1="50.42" y1="60.68" x2="48.11" y2="60.68"/><path class="cls-3" d="M83,69.65V60.88H68V58L82.42,37.44h4.71v20h4.51v3.42H87.13v8.77Zm0-12.19V46.71c0-1.69,0-3.37.15-5.06H83c-1,1.88-1.78,3.27-2.67,4.76l-7.88,11v.1Z" transform="translate(0 -20.89)"/><path class="cls-3" d="M22.24,69.65V60.88h-15V58L21.65,37.44h4.71v20h4.51v3.42H26.36v8.77Zm0-12.19V46.71c0-1.69.05-3.37.15-5.06h-.15c-1,1.88-1.78,3.27-2.67,4.76l-7.88,11v.1Z" transform="translate(0 -20.89)"/><path class="cls-3" d="M52.63,69.65V60.88h-15V58L52,37.44h4.71v20h4.51v3.42H56.74v8.77Zm0-12.19V46.71c0-1.69,0-3.37.15-5.06h-.15c-1,1.88-1.79,3.27-2.68,4.76l-7.88,11v.1Z" transform="translate(0 -20.89)"/></svg>