<svg width="33" height="18" viewBox="0 0 33 18" fill="none" xmlns="http://www.w3.org/2000/svg">
<path d="M10.5967 10.6123H11.583V11.3496H10.5967V13H9.68848V11.3496H6.45117V10.8174L9.63477 5.89062H10.5967V10.6123ZM7.47656 10.6123H9.68848V7.12598L9.58105 7.32129L7.47656 10.6123Z" fill="black"/>
<path d="M26.0947 7.74609C26.0947 8.10091 26.0003 8.41667 25.8115 8.69336C25.626 8.97005 25.3737 9.18652 25.0547 9.34277C25.4258 9.50228 25.7188 9.73503 25.9336 10.041C26.1517 10.347 26.2607 10.6937 26.2607 11.0811C26.2607 11.6963 26.0524 12.1862 25.6357 12.5508C25.2223 12.9154 24.6771 13.0977 24 13.0977C23.3164 13.0977 22.7679 12.9154 22.3545 12.5508C21.9443 12.1829 21.7393 11.693 21.7393 11.0811C21.7393 10.6969 21.8434 10.3503 22.0518 10.041C22.2633 9.73177 22.5547 9.4974 22.9258 9.33789C22.61 9.18164 22.361 8.96517 22.1787 8.68848C21.9964 8.41178 21.9053 8.09766 21.9053 7.74609C21.9053 7.14714 22.0973 6.67188 22.4814 6.32031C22.8656 5.96875 23.3717 5.79297 24 5.79297C24.625 5.79297 25.1296 5.96875 25.5137 6.32031C25.901 6.67188 26.0947 7.14714 26.0947 7.74609ZM25.3574 11.0615C25.3574 10.6644 25.2305 10.3405 24.9766 10.0898C24.7259 9.83919 24.3971 9.71387 23.9902 9.71387C23.5833 9.71387 23.2562 9.83757 23.0088 10.085C22.7646 10.3324 22.6426 10.6579 22.6426 11.0615C22.6426 11.4652 22.7614 11.7826 22.999 12.0137C23.2399 12.2448 23.5736 12.3604 24 12.3604C24.4232 12.3604 24.7552 12.2448 24.9961 12.0137C25.237 11.7793 25.3574 11.4619 25.3574 11.0615ZM24 6.53516C23.6452 6.53516 23.3571 6.64583 23.1357 6.86719C22.9176 7.08529 22.8086 7.38314 22.8086 7.76074C22.8086 8.12207 22.916 8.41504 23.1309 8.63965C23.349 8.861 23.6387 8.97168 24 8.97168C24.3613 8.97168 24.6494 8.861 24.8643 8.63965C25.0824 8.41504 25.1914 8.12207 25.1914 7.76074C25.1914 7.39941 25.0791 7.10482 24.8545 6.87695C24.6299 6.64909 24.3451 6.53516 24 6.53516Z" fill="black"/>
<line x1="1.5" x2="1.5" y2="18" stroke="black"/>
<line x1="1" y1="17.5" x2="31" y2="17.5" stroke="black"/>
<line x1="2" y1="0.5" x2="31" y2="0.5" stroke="black"/>
<line x1="16.5" y1="-2.18557e-08" x2="16.5" y2="18" stroke="black"/>
<line x1="30.5" x2="30.5" y2="18" stroke="black"/>
</svg>
