<svg fill="none" height="18" viewBox="0 0 33 18" width="33" xmlns="http://www.w3.org/2000/svg"><path d="m11.0947 7.74609c0 .35482-.0944.67058-.2832.94727-.1855.27669-.4378.49316-.7568.64941.3711.15951.6641.39226.8789.69823.2181.306.3271.6527.3271 1.0401 0 .6152-.2083 1.1051-.625 1.4697-.4134.3646-.95862.5469-1.6357.5469-.68359 0-1.2321-.1823-1.64551-.5469-.41015-.3679-.61523-.8578-.61523-1.4697 0-.3842.10416-.7308.3125-1.0401.21159-.30923.50293-.5436.87402-.70311-.31575-.15625-.56478-.37272-.74707-.64941-.18229-.2767-.27344-.59082-.27344-.94239 0-.59895.19206-1.07421.57618-1.42578.38411-.35156.89029-.52734 1.51855-.52734.625 0 1.1296.17578 1.5137.52734.3873.35157.581.82683.581 1.42578zm-.7373 3.31541c0-.3971-.1269-.721-.38084-.9717-.25065-.25061-.57942-.37593-.98633-.37593-.4069 0-.73405.1237-.98144.37113-.24414.2474-.36621.5729-.36621.9765 0 .4037.11881.7211.35644.9522.24089.2311.57455.3467 1.00098.3467.42318 0 .75521-.1156.99609-.3467.24091-.2344.36131-.5518.36131-.9522zm-1.3574-4.52634c-.35482 0-.6429.11067-.86426.33203-.2181.2181-.32715.51595-.32715.89355 0 .36133.10743.6543.32227.87891.2181.22135.50781.33203.86914.33203s.64941-.11068.86426-.33203c.21814-.22461.32714-.51758.32714-.87891s-.1123-.65592-.33691-.88379c-.22461-.22786-.50944-.34179-.85449-.34179z" fill="#000"/><path d="m25.5967 10.6123h.9863v.7373h-.9863v1.6504h-.9082v-1.6504h-3.2373v-.5322l3.1836-4.92678h.9619zm-3.1201 0h2.2119v-3.48632l-.1074.19531z" fill="#000"/><g stroke="#000"><path d="m1.5 0v18"/><path d="m1 17.5h30"/><path d="m2 .5h29"/><path d="m16.5 0v18"/><path d="m30.5 0v18"/></g></svg>