<svg id="Layer_1" data-name="Layer 1" xmlns="http://www.w3.org/2000/svg" viewBox="0 0 100 62.99"><defs><style>.cls-1{fill:#fff;}.cls-2{fill:#231f20;}</style></defs><title>Untitled-3</title><rect class="cls-1" x="7.28" y="6.41" width="85.44" height="48.35"/><path d="M84.49,20.89h-69A15.52,15.52,0,0,0,0,36.4v32A15.52,15.52,0,0,0,15.5,83.88h69A15.52,15.52,0,0,0,100,68.37v-32A15.53,15.53,0,0,0,84.49,20.89ZM2.3,68.37v-32A13.21,13.21,0,0,1,15.5,23.2H48.11V81.57H15.5A13.21,13.21,0,0,1,2.3,68.37Zm95.39,0a13.21,13.21,0,0,1-13.2,13.2H50.42V23.2H84.49a13.21,13.21,0,0,1,13.2,13.2Z" transform="translate(0 -20.89)"/><path class="cls-2" d="M17.69,65.49a15.33,15.33,0,0,0,3.18-.19A12.73,12.73,0,0,0,31.76,54.16h-.14a9.34,9.34,0,0,1-7.57,3.62c-5.54,0-9.44-4-9.44-10.12,0-5.74,3.9-11,10.41-11,6.69,0,11.08,5.21,11.08,13.35,0,6.17-2.22,11-5.3,14.12a17,17,0,0,1-10,4.63,20.64,20.64,0,0,1-3.08.24ZM18.9,47.42c0,4.48,2.55,7.18,6.45,7.18a7,7,0,0,0,6.08-3.86,3.7,3.7,0,0,0,.48-1.88c-.1-5.15-2.46-9-6.89-9C21.35,39.9,18.9,42.93,18.9,47.42Z" transform="translate(0 -20.89)"/><path class="cls-2" d="M65.44,63.57a14.17,14.17,0,0,0,6.93,2c5.44,0,7.12-3.46,7.08-6.06,0-4.38-4-6.26-8.09-6.26H69V50.05h2.36c3.08,0,7-1.59,7-5.3,0-2.5-1.59-4.71-5.49-4.71a11.39,11.39,0,0,0-6.25,2.07L65.49,39a14.79,14.79,0,0,1,8.18-2.41c6.16,0,9,3.66,9,7.46,0,3.22-1.92,6-5.77,7.36v.1c3.85.77,7,3.66,7,8,0,5-3.89,9.38-11.4,9.38a15.9,15.9,0,0,1-8.13-2.12Z" transform="translate(0 -20.89)"/></svg>